<?xml version="1.0" encoding="utf-8"?>
<!-- Generator: Adobe Illustrator 17.1.0, SVG Export Plug-In . SVG Version: 6.00 Build 0)  -->
<!DOCTYPE svg PUBLIC "-//W3C//DTD SVG 1.1//EN" "http://www.w3.org/Graphics/SVG/1.1/DTD/svg11.dtd">
<svg version="1.1" id="Layer_1" xmlns="http://www.w3.org/2000/svg" xmlns:xlink="http://www.w3.org/1999/xlink" x="0px" y="0px"
	 viewBox="0 0 30.9 30.9" enable-background="new 0 0 30.9 30.9" xml:space="preserve">
<g>
	<rect x="0.4" y="0.4" fill="#FFFFFF" stroke="#010101" stroke-miterlimit="10" width="30.2" height="30.2"/>
	<g>
		<g>
			<path fill="#231F20" d="M21.4,14.9c0,0.8-0.2,1.5-0.6,2.1c-0.4,0.6-0.9,1.1-1.5,1.4c-0.6,0.4-1.3,0.6-2.1,0.8
				c-0.8,0.2-1.6,0.3-2.4,0.3c-1.1,0-2-0.1-2.9-0.2c-0.9-0.1-1.7-0.2-2.4-0.4v-3.2c0.9,0.4,1.8,0.6,2.7,0.8c0.9,0.2,1.7,0.3,2.5,0.3
				c0.9,0,1.6-0.1,2.1-0.4c0.5-0.3,0.7-0.7,0.7-1.1c0-0.2,0-0.4-0.1-0.6c-0.1-0.2-0.3-0.4-0.5-0.5c-0.3-0.2-0.6-0.3-1.1-0.5
				c-0.5-0.2-1.1-0.4-1.9-0.6c-0.7-0.2-1.4-0.4-1.9-0.7c-0.5-0.3-1-0.6-1.3-0.9c-0.4-0.3-0.6-0.7-0.8-1.2c-0.2-0.5-0.3-1-0.3-1.6
				c0-0.4,0.1-0.9,0.2-1.3c0.3-0.8,0.9-1.4,1.4-1.7c0.6-0.5,1.2-0.7,2-0.9c0.8-0.2,1.7-0.3,2.8-0.3c0.9,0,1.7,0,2.4,0.1
				c0.7,0.1,1.3,0.2,1.9,0.3v2.9c-0.8-0.3-1.6-0.5-2.4-0.6c-0.7-0.1-1.5-0.2-2.2-0.2C15,6.9,14.4,7,14,7.3c-0.4,0.3-0.7,0.6-0.7,1.1
				c0,0.2,0,0.4,0.1,0.6c0.1,0.2,0.3,0.3,0.5,0.5c0.3,0.2,0.6,0.3,1.1,0.5c0.5,0.2,1.1,0.4,1.8,0.6c0.8,0.2,1.6,0.5,2.1,0.8
				c0.6,0.3,1,0.6,1.4,0.9c0.4,0.3,0.6,0.7,0.8,1.2C21.3,13.9,21.4,14.4,21.4,14.9z"/>
		</g>
		<rect x="7.2" y="21.6" fill="#010101" width="16.5" height="5"/>
	</g>
</g>
</svg>
